<svg xmlns="http://www.w3.org/2000/svg" viewBox="0 0 64 64">
  <rect width="64" height="64" rx="18" fill="#f8fafc"/>
  <path d="M31.6 23.1c12.3 0 20.2 7.3 20.2 17.2 0 8.8-7.4 15.3-19.8 15.3S12.2 49.1 12.2 40.3c0-9.9 7.1-17.2 19.4-17.2Z" fill="#ef4444"/>
  <path d="M32 24.1c-1.8-6.1 1.5-11.2 7.8-12.8 1.1 5.5-1.8 10.9-7.8 12.8Z" fill="#22c55e"/>
  <path d="M32.4 24.2c-4.6-2-7.4-5.6-7.6-10.5 5.6.1 9.3 3.7 7.6 10.5Z" fill="#16a34a"/>
  <path d="M22.5 36.5c1.8-3.1 5.2-4.9 9.5-4.9" fill="none" stroke="#fecaca" stroke-width="4" stroke-linecap="round"/>
</svg>
